HIERARCHY
ROOT Root
{
  OFFSET 0.0 0.0 0.0
  CHANNELS 6 Xposition Yposition Zposition Zrotation Yrotation Xrotation
  JOINT Hips
  {
    OFFSET 0.0 100.0 0.0
    CHANNELS 6 Xposition Yposition Zposition Zrotation Yrotation Xrotation
    JOINT Spine1
    {
      OFFSET -0.013727 5.003763 -0.053727
      CHANNELS 3 Zrotation Yrotation Xrotation
      JOINT Spine2
      {
        OFFSET -0.0 7.125301 -0.029825
        CHANNELS 3 Zrotation Yrotation Xrotation
        JOINT Chest
        {
          OFFSET -1e-06 7.550063 -0.815971
          CHANNELS 3 Zrotation Yrotation Xrotation
          JOINT Neck1
          {
            OFFSET -0.181677 26.311295 -0.553348
            CHANNELS 3 Zrotation Yrotation Xrotation
            JOINT Neck2
            {
              OFFSET -3e-06 7.709397 2.302585
              CHANNELS 3 Zrotation Yrotation Xrotation
              JOINT Head
              {
                OFFSET -5e-06 6.128916 1.953709
                CHANNELS 3 Zrotation Yrotation Xrotation
                JOINT HeadEnd
                {
                  OFFSET 0.003598 16.065403 -1.835379
                  CHANNELS 3 Zrotation Yrotation Xrotation
                }
                JOINT Jaw
                {
                  OFFSET 0.002637 0.475592 3.094941
                  CHANNELS 3 Zrotation Yrotation Xrotation
                }
                JOINT LeftEye
                {
                  OFFSET 3.206381 5.380205 7.586883
                  CHANNELS 3 Zrotation Yrotation Xrotation
                }
                JOINT RightEye
                {
                  OFFSET -3.22244 5.361869 7.558234
                  CHANNELS 3 Zrotation Yrotation Xrotation
                }
              }
            }
          }
          JOINT LeftShoulder
          {
            OFFSET 1.621652 23.237164 5.113413
            CHANNELS 3 Zrotation Yrotation Xrotation
            JOINT LeftArm
            {
              OFFSET 14.919846 2e-06 -5.502326
              CHANNELS 3 Zrotation Yrotation Xrotation
              JOINT LeftForeArm
              {
                OFFSET 28.739307 0.0 -0.002588
                CHANNELS 3 Zrotation Yrotation Xrotation
                JOINT LeftHand
                {
                  OFFSET 27.093981 -1e-06 0.002609
                  CHANNELS 3 Zrotation Yrotation Xrotation
                  JOINT LeftHandThumb1
                  {
                    OFFSET 2.276482 -1.392045 3.191413
                    CHANNELS 3 Zrotation Yrotation Xrotation
                    JOINT LeftHandThumb2
                    {
                      OFFSET 4.012836 -1.828127 1.641654
                      CHANNELS 3 Zrotation Yrotation Xrotation
                      JOINT LeftHandThumb3
                      {
                        OFFSET 2.798515 0.0 -3e-06
                        CHANNELS 3 Zrotation Yrotation Xrotation
                        JOINT LeftHandThumbEnd
                        {
                          OFFSET 3.180793 -4e-06 4e-06
                          CHANNELS 3 Zrotation Yrotation Xrotation
                        }
                      }
                    }
                  }
                  JOINT LeftHandIndex1
                  {
                    OFFSET 3.247555 -0.531998 2.296169
                    CHANNELS 3 Zrotation Yrotation Xrotation
                    JOINT LeftHandIndex2
                    {
                      OFFSET 6.364578 0.01206 0.1786
                      CHANNELS 3 Zrotation Yrotation Xrotation
                      JOINT LeftHandIndex3
                      {
                        OFFSET 3.662364 0.0 0.0
                        CHANNELS 3 Zrotation Yrotation Xrotation
                        JOINT LeftHandIndex4
                        {
                          OFFSET 2.329242 4e-06 4e-06
                          CHANNELS 3 Zrotation Yrotation Xrotation
                          JOINT LeftHandIndexEnd
                          {
                            OFFSET 2.759615 -0.180537 -0.113024
                            CHANNELS 3 Zrotation Yrotation Xrotation
                          }
                        }
                      }
                    }
                  }
                  JOINT LeftHandMiddle1
                  {
                    OFFSET 3.163495 0.240981 1.000332
                    CHANNELS 3 Zrotation Yrotation Xrotation
                    JOINT LeftHandMiddle2
                    {
                      OFFSET 6.19078 -0.259278 -1.002548
                      CHANNELS 3 Zrotation Yrotation Xrotation
                      JOINT LeftHandMiddle3
                      {
                        OFFSET 4.35652 -4e-06 -1e-06
                        CHANNELS 3 Zrotation Yrotation Xrotation
                        JOINT LeftHandMiddle4
                        {
                          OFFSET 2.996877 -8e-06 0.0
                          CHANNELS 3 Zrotation Yrotation Xrotation
                          JOINT LeftHandMiddleEnd
                          {
                            OFFSET 2.304287 -0.294569 -0.031741
                            CHANNELS 3 Zrotation Yrotation Xrotation
                          }
                        }
                      }
                    }
                  }
                  JOINT LeftHandRing1
                  {
                    OFFSET 2.882643 -0.053652 -0.322543
                    CHANNELS 3 Zrotation Yrotation Xrotation
                    JOINT LeftHandRing2
                    {
                      OFFSET 5.854541 -0.486202 -1.373841
                      CHANNELS 3 Zrotation Yrotation Xrotation
                      JOINT LeftHandRing3
                      {
                        OFFSET 4.350578 0.0 3e-06
                        CHANNELS 3 Zrotation Yrotation Xrotation
                        JOINT LeftHandRing4
                        {
                          OFFSET 2.651321 7e-06 2e-06
                          CHANNELS 3 Zrotation Yrotation Xrotation
                          JOINT LeftHandRingEnd
                          {
                            OFFSET 1.936105 0.077687 -7.1e-05
                            CHANNELS 3 Zrotation Yrotation Xrotation
                          }
                        }
                      }
                    }
                  }
                  JOINT LeftHandPinky1
                  {
                    OFFSET 2.8655 -0.310005 -1.600378
                    CHANNELS 3 Zrotation Yrotation Xrotation
                    JOINT LeftHandPinky2
                    {
                      OFFSET 5.087849 -1.331141 -1.77123
                      CHANNELS 3 Zrotation Yrotation Xrotation
                      JOINT LeftHandPinky3
                      {
                        OFFSET 3.070974 4e-06 0.0
                        CHANNELS 3 Zrotation Yrotation Xrotation
                        JOINT LeftHandPinky4
                        {
                          OFFSET 1.549672 0.0 1e-06
                          CHANNELS 3 Zrotation Yrotation Xrotation
                          JOINT LeftHandPinkyEnd
                          {
                            OFFSET 1.944893 -0.157802 0.057219
                            CHANNELS 3 Zrotation Yrotation Xrotation
                          }
                        }
                      }
                    }
                  }
                }
              }
            }
          }
          JOINT RightShoulder
          {
            OFFSET -1.380118 23.180309 5.214158
            CHANNELS 3 Zrotation Yrotation Xrotation
            JOINT RightArm
            {
              OFFSET -15.037196 1.2e-05 -5.545604
              CHANNELS 3 Zrotation Yrotation Xrotation
              JOINT RightForeArm
              {
                OFFSET -28.736639 2e-06 -0.002597
                CHANNELS 3 Zrotation Yrotation Xrotation
                JOINT RightHand
                {
                  OFFSET -27.133619 -0.0 0.002613
                  CHANNELS 3 Zrotation Yrotation Xrotation
                  JOINT RightHandThumb1
                  {
                    OFFSET -2.274032 -1.383988 3.163127
                    CHANNELS 3 Zrotation Yrotation Xrotation
                    JOINT RightHandThumb2
                    {
                      OFFSET -4.011429 -1.827466 1.640914
                      CHANNELS 3 Zrotation Yrotation Xrotation
                      JOINT RightHandThumb3
                      {
                        OFFSET -2.794935 -4e-06 -3e-06
                        CHANNELS 3 Zrotation Yrotation Xrotation
                        JOINT RightHandThumbEnd
                        {
                          OFFSET -3.183852 4e-06 1e-06
                          CHANNELS 3 Zrotation Yrotation Xrotation
                        }
                      }
                    }
                  }
                  JOINT RightHandIndex1
                  {
                    OFFSET -3.253266 -0.520057 2.282866
                    CHANNELS 3 Zrotation Yrotation Xrotation
                    JOINT RightHandIndex2
                    {
                      OFFSET -6.341917 0.012471 0.178266
                      CHANNELS 3 Zrotation Yrotation Xrotation
                      JOINT RightHandIndex3
                      {
                        OFFSET -3.654871 -8e-06 -0.0
                        CHANNELS 3 Zrotation Yrotation Xrotation
                        JOINT RightHandIndex4
                        {
                          OFFSET -2.327586 0.0 1e-06
                          CHANNELS 3 Zrotation Yrotation Xrotation
                          JOINT RightHandIndexEnd
                          {
                            OFFSET -2.76179 -0.180656 -0.113078
                            CHANNELS 3 Zrotation Yrotation Xrotation
                          }
                        }
                      }
                    }
                  }
                  JOINT RightHandMiddle1
                  {
                    OFFSET -3.168106 0.246593 1.00103
                    CHANNELS 3 Zrotation Yrotation Xrotation
                    JOINT RightHandMiddle2
                    {
                      OFFSET -6.180828 -0.258836 -1.000895
                      CHANNELS 3 Zrotation Yrotation Xrotation
                      JOINT RightHandMiddle3
                      {
                        OFFSET -4.348901 0.0 -0.0
                        CHANNELS 3 Zrotation Yrotation Xrotation
                        JOINT RightHandMiddle4
                        {
                          OFFSET -3.00024 -4e-06 -2e-06
                          CHANNELS 3 Zrotation Yrotation Xrotation
                          JOINT RightHandMiddleEnd
                          {
                            OFFSET -2.30252 -0.29437 -0.031706
                            CHANNELS 3 Zrotation Yrotation Xrotation
                          }
                        }
                      }
                    }
                  }
                  JOINT RightHandRing1
                  {
                    OFFSET -2.88569 -0.067952 -0.308858
                    CHANNELS 3 Zrotation Yrotation Xrotation
                    JOINT RightHandRing2
                    {
                      OFFSET -5.854198 -0.48613 -1.373731
                      CHANNELS 3 Zrotation Yrotation Xrotation
                      JOINT RightHandRing3
                      {
                        OFFSET -4.33881 -4e-06 -0.0
                        CHANNELS 3 Zrotation Yrotation Xrotation
                        JOINT RightHandRing4
                        {
                          OFFSET -2.654903 -4e-06 4e-06
                          CHANNELS 3 Zrotation Yrotation Xrotation
                          JOINT RightHandRingEnd
                          {
                            OFFSET -1.933568 0.077527 -5.2e-05
                            CHANNELS 3 Zrotation Yrotation Xrotation
                          }
                        }
                      }
                    }
                  }
                  JOINT RightHandPinky1
                  {
                    OFFSET -2.866425 -0.342796 -1.584145
                    CHANNELS 3 Zrotation Yrotation Xrotation
                    JOINT RightHandPinky2
                    {
                      OFFSET -5.091371 -1.332055 -1.772385
                      CHANNELS 3 Zrotation Yrotation Xrotation
                      JOINT RightHandPinky3
                      {
                        OFFSET -3.062664 -4e-06 1e-06
                        CHANNELS 3 Zrotation Yrotation Xrotation
                        JOINT RightHandPinky4
                        {
                          OFFSET -1.546529 4e-06 -2e-06
                          CHANNELS 3 Zrotation Yrotation Xrotation
                          JOINT RightHandPinkyEnd
                          {
                            OFFSET -1.945119 -0.157718 0.057211
                            CHANNELS 3 Zrotation Yrotation Xrotation
                          }
                        }
                      }
                    }
                  }
                }
              }
            }
          }
        }
      }
    }
    JOINT LeftLeg
    {
      OFFSET 10.043214 -8.434526 2.595655
      CHANNELS 3 Zrotation Yrotation Xrotation
      JOINT LeftShin
      {
        OFFSET -1e-06 -43.221752 -0.802913
        CHANNELS 3 Zrotation Yrotation Xrotation
        JOINT LeftFoot
        {
          OFFSET 1e-06 -42.155094 -3.481523
          CHANNELS 3 Zrotation Yrotation Xrotation
          JOINT LeftToeBase
          {
            OFFSET 0.0 -5.059472 13.231529
            CHANNELS 3 Zrotation Yrotation Xrotation
            JOINT LeftToeEnd
            {
              OFFSET -0.009607 -1.647619 6.513017
              CHANNELS 3 Zrotation Yrotation Xrotation
            }
          }
        }
      }
    }
    JOINT RightLeg
    {
      OFFSET -10.047278 -8.29526 2.620317
      CHANNELS 3 Zrotation Yrotation Xrotation
      JOINT RightShin
      {
        OFFSET 1e-06 -43.362206 -0.805556
        CHANNELS 3 Zrotation Yrotation Xrotation
        JOINT RightFoot
        {
          OFFSET 2e-06 -42.117393 -3.478398
          CHANNELS 3 Zrotation Yrotation Xrotation
          JOINT RightToeBase
          {
            OFFSET -0.0 -5.079609 13.284196
            CHANNELS 3 Zrotation Yrotation Xrotation
            JOINT RightToeEnd
            {
              OFFSET 0.009532 -1.634378 6.460591
              CHANNELS 3 Zrotation Yrotation Xrotation
            }
          }
        }
      }
    }
  }
}
MOTION
Frames: 4
Frame Time: 0.03333333333333333
0.0 0.0 0.0 0.0 -0.0 0.0 -0.74355 99.473404 0.417608 0.72545 -0.143954 -6.989921 0.560699 -0.012569 1.397387 -0.587817 -0.18035 -4.658512 -1.251249 -1.967049 12.974516 1.496794 2.062185 5.137789 -0.576726 0.284432 -3.5013 -0.805945 -0.166075 -6.021614 7.7e-05 -2.2e-05 6e-06 0.018735 0.079365 0.016199 0.740355 -3.64683 -10.5491 -0.705688 3.810567 -10.550885 -9.940204 -5.222943 16.159941 -61.886086 -16.490711 41.763832 -0.361662 -28.805695 0.055083 10.25936 7.331937 -15.415502 -5.88211 9.861288 0.702591 -10.936875 -0.360572 7.15621 -1e-06 8.774826 -0.0 -15.70296 17.990593 6.191259 -1.844033 2.498507 -2.507278 -10.163604 4.678947 4.62111 -20.97603 1e-06 1e-06 -21.226294 2.451701 -3.593999 0.0 -4e-06 -1e-06 -1.362682 2.240798 -0.746323 -21.334921 0.584915 3.008324 -13.821218 -0.0 0.0 -23.887178 -0.249074 -0.839486 -60.137775 2.568202 -1.305229 -0.294026 1.679687 0.833258 -14.218215 0.093218 1.300582 -34.212055 -0.287556 0.967166 -20.033224 0.964541 1.212842 -1e-06 0.0 0.0 -3.440389 0.788234 0.501657 -15.928191 -3.167307 2.99971 -6.338829 1e-06 2e-06 -18.123453 3.648186 -4.905674 -5e-06 -0.0 -1e-06 18.160065 7.160019 18.382229 61.833504 17.490492 24.661619 0.585478 29.077332 0.508888 4.790592 -2.799913 2.924245 2.243544 -5.255038 -3.180159 14.282896 -0.826595 6.9525 -0.0 -12.690609 0.0 16.087404 -17.782032 2.550185 1.665669 -1.955922 -2.8783 4.7278 -4.170589 4.993922 11.020531 2e-06 -3e-06 12.109059 -3.735716 -2.866789 0.0 -0.0 0.0 1.291987 -1.928551 -1.498089 14.800132 0.567468 3.865606 14.24258 -1.341735 -6.660664 19.631973 0.143927 -0.648251 49.768517 -0.769508 -6.580326 0.353028 -1.511151 -0.031941 20.222801 3.684312 2.316626 18.787279 5e-06 -6e-06 10.751631 -0.479868 1.397904 0.0 -1e-06 -0.0 3.273808 0.305947 -0.580112 21.48682 11.830379 2.266128 8.16293 2e-06 -2e-06 18.399088 -3.798985 -4.940581 4e-06 0.0 0.0 4.745709 8.809581 6.851713 -0.034017 -0.080517 6.989277 -5.943763 4.727269 -6.488402 1.6572 -2.037045 -1.251598 0.0 -0.0 2e-06 -4.079364 6.359023 1.966999 -0.030202 0.197059 12.292589 6.650962 4.508073 -7.457233 -1.413705 1.037649 -1.449782 0.0 0.0 -1e-06 
0.0 0.0 0.0 0.0 -0.0 0.0 -0.738461 99.485245 0.35417 0.751156 -0.09759 -6.94409 0.524279 0.011644 1.394319 -0.597413 -0.210655 -4.643155 -1.281951 -2.008883 12.991657 1.58819 1.989403 5.022508 -0.567929 0.31187 -3.493644 -0.774982 -0.229676 -5.997618 7.7e-05 -2.3e-05 6e-06 0.016909 0.087198 0.020899 0.740955 -3.638851 -10.547126 -0.709965 3.818558 -10.547083 -9.92805 -5.375154 16.22538 -61.756428 -16.982691 42.49844 -0.316997 -28.947504 0.038453 10.06534 7.432267 -15.304807 -5.88211 9.86129 0.70259 -10.936877 -0.360574 7.156208 0.0 8.774828 0.0 -15.68589 18.031412 6.225591 -1.844033 2.498504 -2.507278 -10.163605 4.678948 4.621111 -20.976034 -1e-06 0.0 -21.226299 2.451698 -3.594 1e-06 -4e-06 -2e-06 -1.362682 2.240799 -0.746325 -21.334925 0.584912 3.008322 -13.821221 -1e-06 2e-06 -23.88718 -0.249076 -0.839483 -60.128178 2.612643 -1.293301 -0.294025 1.679688 0.833259 -14.218215 0.093215 1.300582 -34.212067 -0.287562 0.96717 -20.033222 0.964539 1.212844 0.0 -0.0 0.0 -3.44039 0.788233 0.501655 -15.928192 -3.167308 2.99971 -6.338829 -0.0 -1e-06 -18.123457 3.648185 -4.905674 -5e-06 0.0 -0.0 18.08371 7.212266 18.377968 62.00465 17.724159 25.531961 0.518379 29.472038 0.50118 4.794068 -2.81418 2.724345 2.243542 -5.255037 -3.180159 14.282894 -0.826595 6.9525 -1e-06 -12.690603 0.0 16.13788 -17.823977 2.572045 1.665666 -1.955922 -2.8783 4.7278 -4.170587 4.993925 11.020529 1e-06 -1e-06 12.109055 -3.735717 -2.866786 0.0 1e-06 0.0 1.291986 -1.928549 -1.49809 14.800131 0.567467 3.865605 14.242577 -1.341736 -6.66066 19.631969 0.143926 -0.648246 49.842754 -0.777202 -6.58768 0.35303 -1.511152 -0.031941 20.222797 3.684309 2.316628 18.787279 4e-06 -1e-06 10.751631 -0.47987 1.397907 0.0 -1e-06 -0.0 3.273808 0.305947 -0.580109 21.486818 11.830376 2.26613 8.162931 3e-06 -1e-06 18.39909 -3.798984 -4.940581 3e-06 0.0 -1e-06 4.707 8.840041 6.79226 -0.035676 -0.072662 6.907424 -5.925529 4.697653 -6.394876 1.657472 -2.060596 -1.277742 0.0 -0.0 2e-06 -4.097013 6.436108 1.899196 -0.03489 0.210824 12.280632 6.653947 4.390703 -7.431959 -1.412229 1.043215 -1.450889 0.0 -0.0 -1e-06 
0.0 0.0 0.0 0.0 -0.0 0.0 -0.717736 99.49424 0.304722 0.774712 -0.037492 -6.90896 0.492974 0.035075 1.391301 -0.602226 -0.215866 -4.627609 -1.30972 -2.039736 12.997009 1.658763 1.938247 4.928539 -0.572874 0.321009 -3.482785 -0.724766 -0.302656 -5.997421 7.7e-05 -2.2e-05 6e-06 0.015262 0.092911 0.024953 0.740159 -3.631419 -10.53723 -0.712482 3.82292 -10.535937 -9.873632 -5.486576 16.229877 -61.598984 -17.298149 42.961769 -0.265817 -29.065468 0.012686 9.951165 7.389822 -15.413117 -5.882105 9.861284 0.702587 -10.93687 -0.360575 7.156209 1e-06 8.774824 -2e-06 -15.65661 18.049511 6.238455 -1.844032 2.498505 -2.507277 -10.163599 4.678945 4.621107 -20.976023 -2e-06 2e-06 -21.226286 2.451698 -3.593999 1e-06 -6e-06 -0.0 -1.362683 2.240799 -0.746323 -21.334915 0.58491 3.008323 -13.821213 -3e-06 0.0 -23.887173 -0.249078 -0.839483 -60.078979 2.63397 -1.294505 -0.294025 1.679687 0.833257 -14.218208 0.093216 1.300581 -34.212048 -0.287561 0.967171 -20.033211 0.964538 1.212842 -1e-06 0.0 0.0 -3.440389 0.788233 0.501654 -15.928185 -3.16731 2.999707 -6.338825 -1e-06 -1e-06 -18.123444 3.648182 -4.90567 -5e-06 -0.0 -1e-06 18.005028 7.275126 18.398842 62.048637 17.913574 25.899666 0.468827 29.586096 0.473685 4.681161 -2.832136 2.562553 2.243539 -5.255034 -3.180156 14.282887 -0.826592 6.9525 -5e-06 -12.690601 1e-06 16.153406 -17.828598 2.603554 1.665665 -1.955922 -2.878297 4.727797 -4.170586 4.993921 11.020522 3e-06 -1e-06 12.109048 -3.735711 -2.866786 0.0 1e-06 0.0 1.291985 -1.92855 -1.498088 14.800122 0.56747 3.865605 14.242565 -1.341734 -6.660654 19.631958 0.143928 -0.648245 49.895023 -0.785188 -6.574922 0.353028 -1.51115 -0.031939 20.222784 3.68431 2.316631 18.787268 6e-06 1e-06 10.751625 -0.479867 1.397905 0.0 -1e-06 -1e-06 3.273806 0.305948 -0.580109 21.486809 11.830372 2.266132 8.162924 2e-06 0.0 18.399075 -3.798982 -4.940571 3e-06 1e-06 -2e-06 4.654548 8.855511 6.727981 -0.038598 -0.069364 6.861954 -5.879156 4.687736 -6.329001 1.659395 -2.086166 -1.288205 0.0 -0.0 2e-06 -4.124957 6.489132 1.849824 -0.036923 0.20841 12.261036 6.644686 4.297366 -7.411315 -1.41009 1.043918 -1.457797 0.0 0.0 -1e-06 
0.0 0.0 0.0 0.0 -0.0 0.0 -0.686161 99.493629 0.267658 0.799626 0.05126 -6.880866 0.458131 0.049064 1.388935 -0.604877 -0.208939 -4.620111 -1.326367 -2.046591 12.991149 1.722348 1.907992 4.872673 -0.586939 0.298585 -3.475951 -0.691383 -0.376802 -6.017399 7.7e-05 -2.2e-05 6e-06 0.014974 0.095257 0.027827 0.739583 -3.627455 -10.521626 -0.712487 3.82407 -10.520605 -9.789048 -5.572968 16.205904 -61.392113 -17.460899 43.309052 -0.191716 -29.158365 -0.015521 9.869791 7.268565 -15.698704 -5.88211 9.861292 0.702588 -10.936875 -0.360574 7.156209 -2e-06 8.77483 -3e-06 -15.586536 18.04365 6.257456 -1.844033 2.498506 -2.507279 -10.163604 4.678949 4.621109 -20.97603 2e-06 1e-06 -21.226297 2.451702 -3.594005 0.0 -6e-06 -1e-06 -1.362682 2.240799 -0.746322 -21.334921 0.584913 3.008322 -13.821218 0.0 1e-06 -23.88718 -0.249074 -0.839485 -60.000298 2.637829 -1.308892 -0.294025 1.679689 0.833259 -14.218214 0.093217 1.300581 -34.212063 -0.28756 0.967167 -20.033222 0.964539 1.21284 -1e-06 0.0 0.0 -3.440391 0.788235 0.501657 -15.928191 -3.167308 2.999709 -6.338829 0.0 -1e-06 -18.123457 3.648188 -4.905674 -4e-06 -0.0 -2e-06 17.942881 7.331154 18.430185 61.978809 18.024691 25.898224 0.458315 29.473602 0.444533 4.515163 -2.860817 2.460793 2.243544 -5.255039 -3.180157 14.282896 -0.826597 6.952499 1e-06 -12.690608 -3e-06 16.125664 -17.796919 2.634316 1.665668 -1.955922 -2.878299 4.727801 -4.170589 4.993924 11.020531 0.0 -3e-06 12.109058 -3.735719 -2.86679 -1e-06 0.0 -1e-06 1.291986 -1.928551 -1.498091 14.800136 0.567465 3.865605 14.242581 -1.341741 -6.660664 19.631979 0.143924 -0.648249 49.907135 -0.780279 -6.556056 0.353029 -1.511152 -0.03194 20.222797 3.684307 2.316627 18.787283 2e-06 -4e-06 10.751633 -0.479868 1.397903 0.0 -0.0 -0.0 3.273809 0.305948 -0.58011 21.48682 11.830378 2.266132 8.16293 2e-06 -2e-06 18.399092 -3.798985 -4.940583 4e-06 0.0 -3e-06 4.590086 8.840921 6.599016 -0.041186 -0.071405 6.971379 -5.837674 4.670928 -6.3414 1.661297 -2.097744 -1.284607 -0.0 0.0 2e-06 -4.170284 6.482233 1.784806 -0.033421 0.197018 12.309639 6.638916 4.247637 -7.433628 -1.409166 1.044536 -1.468726 0.0 -0.0 -1e-06 
